<?xml version="1.0" encoding="UTF-8" standalone="no"?>
<svg
   version="1.1"
   viewBox="0 0 48 48"
   id="svg23"
   xmlns="http://www.w3.org/2000/svg"
   xmlns:svg="http://www.w3.org/2000/svg">
  <defs
     id="defs7">
    <linearGradient
       id="bg"
       x2="0"
       y1="1"
       y2="47"
       gradientUnits="userSpaceOnUse">
      <stop
         style="stop-color:#fcbf3c"
         offset="0"
         id="stop2" />
      <stop
         style="stop-color:#fcb828"
         offset="1"
         id="stop4" />
    </linearGradient>
  </defs>
  <ellipse
     style="fill:#2a7fff;fill-opacity:1;stroke:#000000;stroke-width:0;stroke-dasharray:none;stroke-opacity:1"
     id="path4610"
     cx="24"
     cy="24"
     rx="22.915995"
     ry="22.915993" />
  <g
     id="g5492"
     transform="translate(0.20567269,-0.27628745)">
    <path
       fill-rule="evenodd"
       d="m 34.591433,24.848433 c -0.0025,-3.496304 -1.7447,-6.787511 -4.661809,-8.806724 -2.917108,-2.019215 -6.637865,-2.509443 -9.956132,-1.311772 -0.324774,0.117321 -0.456416,0.499349 -0.272831,0.791764 l 1.731461,2.762382 c 0.127486,0.207726 0.379114,0.307354 0.614731,0.243393 4.14974,-1.090068 8.254552,2.029337 8.257373,6.275097 0,0.0484 0,0.09626 -0.0015,0.144551 l -2.785815,-0.0298 c -0.421341,-0.0045 -0.678627,0.449213 -0.456077,0.804331 l 2.432798,3.880175 2.486587,3.968099 c 0.210245,0.335403 0.702087,0.340664 0.912333,0.0098 l 2.487128,-3.914894 2.431803,-3.828139 c 0.223336,-0.350397 -0.03446,-0.810375 -0.456257,-0.814091 l -2.765112,-0.02958 c 7.94e-4,-0.0483 0.0014,-0.09616 0.0014,-0.144553 z m -17.30992,-0.04059 2.786268,0.0298 c 0.421509,0.0042 0.678686,-0.449732 0.455985,-0.804955 l -2.431802,-3.880076 -2.48713,-3.968103 c -0.210526,-0.334697 -0.701535,-0.339949 -0.912061,-0.0098 l -2.487128,3.914893 -2.4318029,3.828051 c -0.222575,0.350497 0.0346,0.809902 0.4560759,0.814711 l 2.765655,0.02958 c 0.0491,3.44199 1.781731,6.666532 4.651564,8.656867 2.869835,1.990336 6.523184,2.501172 9.808083,1.371431 0.330256,-0.113285 0.466719,-0.499476 0.280877,-0.794886 -0.526498,-0.83984 -1.491626,-2.378562 -1.739779,-2.774902 C 25.871206,31.016746 25.6262,30.916719 25.393701,30.974426 21.33691,31.94251 17.378405,28.933399 17.281513,24.807838 Z"
       class=""
       id="path4616"
       style="display:inline;fill:#000000;fill-opacity:0.40000001;stroke:#000000;stroke-width:0;stroke-dasharray:none;stroke-opacity:1" />
    <path
       fill-rule="evenodd"
       d="m 34.594423,23.935254 c -0.0025,-3.496304 -1.7447,-6.787511 -4.661809,-8.806724 -2.917108,-2.019215 -6.637865,-2.509443 -9.956132,-1.311772 -0.324774,0.117321 -0.456416,0.499349 -0.272831,0.791764 l 1.731461,2.762382 c 0.127486,0.207726 0.379114,0.307354 0.614731,0.243393 4.14974,-1.090068 8.254552,2.029337 8.257373,6.275097 0,0.0484 0,0.09626 -0.0015,0.144551 l -2.785815,-0.0298 c -0.421341,-0.0045 -0.678627,0.449213 -0.456077,0.804331 l 2.432798,3.880175 2.486587,3.968099 c 0.210245,0.335403 0.702087,0.340664 0.912333,0.0098 l 2.487128,-3.914894 2.431803,-3.828139 c 0.223336,-0.350397 -0.03446,-0.810375 -0.456257,-0.814091 l -2.765112,-0.02958 c 7.94e-4,-0.0483 0.0014,-0.09616 0.0014,-0.144553 z m -17.30992,-0.04059 2.786268,0.0298 c 0.421509,0.0042 0.678686,-0.449732 0.455985,-0.804955 l -2.431802,-3.880076 -2.48713,-3.968103 c -0.210526,-0.334697 -0.701535,-0.339949 -0.912061,-0.0098 l -2.487128,3.914893 -2.431803,3.828051 c -0.2225741,0.350497 0.034601,0.809902 0.456076,0.814711 l 2.765655,0.02958 c 0.0491,3.44199 1.781731,6.666532 4.651564,8.656867 2.869835,1.990336 6.523184,2.501172 9.808083,1.371431 0.330256,-0.113285 0.466719,-0.499476 0.280877,-0.794886 -0.526498,-0.83984 -1.491626,-2.378562 -1.739779,-2.774902 C 25.874196,30.103567 25.62919,30.00354 25.396691,30.061247 21.3399,31.029331 17.381395,28.02022 17.284503,23.894659 Z"
       class=""
       id="path197"
       style="display:inline;fill:#ffffff;fill-opacity:1;stroke:#000000;stroke-width:0;stroke-dasharray:none;stroke-opacity:1" />
  </g>
  <g
     id="g5498">
    <path
       d="m36.31 5c5.859 4.062 9.688 10.831 9.688 18.5 0 12.426-10.07 22.5-22.5 22.5-7.669 0-14.438-3.828-18.5-9.688 1.037 1.822 2.306 3.499 3.781 4.969 4.085 3.712 9.514 5.969 15.469 5.969 12.703 0 23-10.298 23-23 0-5.954-2.256-11.384-5.969-15.469-1.469-1.475-3.147-2.744-4.969-3.781zm4.969 3.781c3.854 4.113 6.219 9.637 6.219 15.719 0 12.703-10.297 23-23 23-6.081 0-11.606-2.364-15.719-6.219 4.16 4.144 9.883 6.719 16.219 6.719 12.703 0 23-10.298 23-23 0-6.335-2.575-12.06-6.719-16.219z"
       style="opacity:.05"
       id="path9" />
    <path
       d="m41.28 8.781c3.712 4.085 5.969 9.514 5.969 15.469 0 12.703-10.297 23-23 23-5.954 0-11.384-2.256-15.469-5.969 4.113 3.854 9.637 6.219 15.719 6.219 12.703 0 23-10.298 23-23 0-6.081-2.364-11.606-6.219-15.719z"
       style="opacity:.1"
       id="path11" />
    <path
       d="m40.03 7.531c3.712 4.084 5.969 9.514 5.969 15.469 0 12.703-10.297 23-23 23-5.954 0-11.384-2.256-15.469-5.969 4.178 4.291 10.01 6.969 16.469 6.969 12.703 0 23-10.298 23-23 0-6.462-2.677-12.291-6.969-16.469z"
       style="opacity:.1"
       id="path17" />
  </g>
</svg>
